<svg id="Camada_1" data-name="Camada 1" xmlns="http://www.w3.org/2000/svg" xmlns:xlink="http://www.w3.org/1999/xlink" viewBox="0 0 598.08 597.99"><defs><style>.cls-1{fill:url(#Gradiente_sem_nome_8);}.cls-2{fill:#443692;}.cls-3{fill:#454ccb;}</style><linearGradient id="Gradiente_sem_nome_8" x1="87.07" y1="511.01" x2="511.1" y2="86.98" gradientUnits="userSpaceOnUse"><stop offset="0" stop-color="#5d94cf"/><stop offset="0.65" stop-color="#3fbbb7"/><stop offset="1" stop-color="#14f195"/></linearGradient></defs><polygon class="cls-1" points="598.08 247.01 421.64 247.01 544.26 120.14 469.5 47.88 351.07 170.4 351.07 0 247.1 0 247.1 176.44 120.23 53.82 47.97 128.58 170.37 246.89 351.03 246.89 351.03 597.91 247.1 597.91 247.1 597.99 351.07 597.99 351.07 421.55 477.94 544.17 550.2 469.41 427.68 350.98 598.08 350.98 598.08 247.01"/><polygon class="cls-2" points="128.67 550.11 53.91 477.85 176.53 350.98 0.09 350.98 0.09 247.01 170.49 247.01 170.37 246.89 0 246.89 0 597.91 247.1 597.91 247.1 427.59 128.67 550.11"/><polygon class="cls-3" points="351.03 246.89 170.37 246.89 170.49 247.01 0.09 247.01 0.09 350.98 176.53 350.98 53.91 477.85 128.67 550.11 247.1 427.59 247.1 597.91 351.03 597.91 351.03 246.89"/></svg>